<svg width="180" height="57" viewBox="0 0 180 57" fill="none" xmlns="http://www.w3.org/2000/svg">
<path d="M70.5829 9.69336C74.4967 9.69336 76.6898 11.5774 76.7741 14.4539C76.7066 16.8763 75.1884 18.3062 73.6026 18.7603C76.6223 19.2145 78.4274 21.4014 78.4274 24.2779C78.4274 27.4573 76.0825 29.56 71.865 29.56H64.9316V29.3413H65.3027C66.2812 29.3413 67.1078 28.517 67.1078 27.5245V11.7288C67.1078 10.7531 66.2812 9.99615 65.3027 9.99615H64.9316V9.69336H70.5829ZM71.7132 28.5675C74.6485 28.5675 76.3186 26.9021 76.3186 24.0424C76.3186 19.8201 72.6916 19.0631 69.9081 19.0631V18.8445C71.6457 18.8445 74.5811 18.323 74.5811 14.6895C74.5811 12.1157 73.1471 10.6186 70.4311 10.6186H68.9972V28.5843H71.7132V28.5675Z" fill="white"/>
<path d="M95.7694 22.6125C95.7694 26.9862 92.8341 29.8628 88.5998 29.8628C84.3655 29.8628 81.5145 26.9862 81.5145 22.6125C81.5145 18.2388 84.4499 15.3623 88.5998 15.3623C92.7498 15.3623 95.7694 18.3061 95.7694 22.6125ZM94.268 22.6125C94.268 18.693 92.0075 15.9679 88.6167 15.9679C85.2259 15.9679 83.0328 18.693 83.0328 22.6125C83.0328 26.532 85.2933 29.2572 88.6167 29.2572C91.94 29.2572 94.268 26.6161 94.268 22.6125Z" fill="white"/>
<path d="M103.091 15.665C105.503 15.665 106.937 17.0949 106.937 19.4331C106.937 21.3172 105.503 23.2012 103.614 23.2012C104.002 23.3526 104.677 24.0255 105.048 24.5638C105.048 24.5638 106.701 27.0534 107.46 27.8777C108.287 28.702 109.046 29.3917 110.176 29.3917V29.5431H109.113C107.224 29.5431 106.246 28.5674 105.638 27.8104C105.402 27.5917 103.142 24.3451 102.99 24.1096C102.467 23.4367 101.927 22.747 101.185 22.747V22.5957H102.247C103.31 22.5284 104.812 22.2929 105.335 20.4761C105.402 20.2406 105.486 19.7191 105.486 19.349C105.402 17.5323 104.508 16.4052 102.99 16.3211C102.011 16.2538 100.814 16.2538 100.51 16.2538V28.1132C100.577 28.7861 101.117 29.3917 101.792 29.3917H102.096V29.5431H97.7263V29.3917H97.9457C98.7048 29.3917 99.2278 28.7861 99.2278 28.1132V17.0949C99.2278 16.422 98.7048 15.8837 97.9457 15.8837H97.7263V15.665H103.091Z" fill="white"/>
<path d="M117.481 15.665C121.698 15.665 124.566 18.4575 124.566 22.6125C124.566 26.7675 121.698 29.5599 117.481 29.5599H110.767V29.4085H111.003C111.678 29.4085 112.285 28.8029 112.285 28.13V17.0276C112.285 16.3547 111.678 15.9005 111.003 15.9005H110.767V15.6819H117.481V15.665ZM113.567 28.9543H117.481C120.872 28.9543 123.132 26.4647 123.132 22.6125C123.132 18.7603 120.872 16.2706 117.481 16.2706H113.567V28.9543Z" fill="white"/>
<path d="M134.84 29.5596H126.624V29.4083H126.843C127.535 29.4083 128.126 28.8027 128.126 28.1298V17.0274C128.041 16.3545 127.518 15.9003 126.843 15.9003H126.624V15.6816H132.427C133.254 15.6816 134.401 15.4629 134.772 15.3115V17.8853H134.553V17.5152C134.553 16.9096 134.097 16.3881 133.49 16.304H129.408V22.4945H132.731C133.271 22.4272 133.709 22.0403 133.709 21.5188V21.216H133.946V24.3112H133.709V24.0084C133.709 23.487 133.338 23.1001 132.799 23.0328H129.408V29.0045H132.276C134.401 29.0045 135.143 27.9447 135.751 26.4308H135.97L134.84 29.6101V29.5596Z" fill="white"/>
<path d="M149.466 28.1301C149.854 29.0385 150.596 29.4086 151.203 29.4086H151.355V29.56H146.902V29.4086H147.138C147.593 29.4086 148.116 28.9544 147.897 28.1301L146.615 24.7321H141.25L139.901 28.1301C139.597 28.9544 140.137 29.4086 140.66 29.4086H140.896V29.56H136.898V29.4086H137.05C137.657 29.4086 138.399 29.0385 138.787 28.1301L143.308 17.4819C143.308 17.4819 143.983 15.8165 143.983 15.3623H144.219L149.5 28.1301H149.466ZM146.379 24.1938L143.949 17.7678L141.47 24.1938H146.379Z" fill="white"/>
<path d="M165.222 15.665V15.8837H164.918C164.395 15.8837 163.94 16.2538 163.856 16.7921V24.6479C163.856 27.8273 161.747 29.8627 158.508 29.8627C155.269 29.8627 153.008 27.8273 153.008 24.732V16.8762C153.008 16.2706 152.553 15.9005 151.946 15.9005H151.642V15.6819H155.708V15.9005H155.32C154.797 15.9005 154.341 16.2706 154.257 16.8089V24.4292C154.257 27.3058 155.994 29.2571 158.491 29.2571C161.123 29.2571 162.928 27.4403 162.928 24.6479V16.7921C162.928 16.2706 162.405 15.8837 161.865 15.8837H161.561V15.665H165.171H165.222Z" fill="white"/>
<path d="M179.764 29.4085V29.5599H174.939V29.4085H175.175C175.698 29.4085 176.238 28.7356 175.934 28.1973L172.847 23.3695L169.828 28.13C169.456 28.7356 169.979 29.4085 170.519 29.4085H170.739V29.5599H166.217V29.4085H166.521C167.348 29.4085 168.107 28.8029 168.545 28.1973L172.324 22.5284L168.849 17.0108C168.394 16.4052 167.719 15.8837 166.892 15.8837H166.589V15.665H171.43V15.8837H171.127C170.587 15.8837 170.148 16.4893 170.435 17.0949L173.151 21.4013L175.867 17.0949C176.255 16.5734 175.715 15.8837 175.192 15.8837H174.956V15.665H179.41V15.8837H179.173C178.262 15.8837 177.588 16.4052 177.149 17.0108L173.674 22.1415L177.52 28.1805C177.976 28.8534 178.65 29.3917 179.477 29.3917H179.781L179.764 29.4085Z" fill="white"/>
<path d="M76.9934 38.8452V38.9966H76.926C76.5548 38.9966 76.015 39.2153 75.7957 39.7536L73.8388 46.0955C73.8388 46.0955 73.6195 46.9197 73.5351 47.458H73.4677L70.9709 40.5779L69.1659 46.0955C69.1659 46.0955 68.9466 46.8525 68.9466 47.458H68.7948L66.0787 39.7536C65.8594 39.2321 65.4039 38.9966 65.0159 38.9966H64.9485V38.8452H67.5801V38.9966H67.5127C67.209 38.9966 66.9053 39.2153 66.9897 39.7536L68.8791 45.574L71.0722 38.6938H71.224L73.5689 45.3385L75.2221 39.6695C75.3739 39.2153 75.0703 38.9966 74.7666 38.9966H74.6148V38.8452H77.0272H76.9934Z" fill="white"/>
<path d="M81.97 47.3068H76.9934V47.2395H77.1453C77.6007 47.2395 77.9044 46.8694 77.9044 46.4825V39.6865C77.9044 39.3164 77.5333 39.0136 77.1453 39.0136H76.9934V38.8622H80.5361C81.059 38.8622 81.7507 38.795 81.97 38.6436V40.1575H81.8182V40.0061C81.8182 39.636 81.5145 39.2491 81.1434 39.2491H78.731V43.0172H80.7723C81.0759 42.95 81.2952 42.7144 81.2952 42.4117V42.193H81.447V44.1611H81.2952V43.9424C81.2952 43.6396 81.0759 43.421 80.7723 43.3369H78.731V46.9704H80.4686C81.6832 46.9704 82.2062 46.3648 82.5773 45.3891H82.7291L81.97 47.3573V47.3068Z" fill="white"/>
<path d="M90.8772 46.4658C91.1809 46.9872 91.6364 47.2228 92.0075 47.2228H92.075V47.29H89.359V47.2228H89.4264C89.7301 47.2228 90.1012 46.92 89.8819 46.4658L89.1228 44.3462H85.8838L85.0572 46.4658C84.9053 46.92 85.209 47.2228 85.5126 47.2228H85.6645V47.29H83.2521V47.2228H83.3196C83.6907 47.2228 84.1462 47.0041 84.3824 46.4658L87.0984 39.8884C87.0984 39.8884 87.5539 38.9128 87.5539 38.6772H87.7057L90.8772 46.4489V46.4658ZM88.9878 44.0434L87.5539 40.1239L86.0525 44.0434H88.9878Z" fill="white"/>
<path d="M98.4855 45.3385L97.8107 47.3066H92.7498V47.2393H92.9016C93.3571 47.2393 93.7282 46.8692 93.7282 46.4823V39.7536C93.7282 39.2994 93.3571 38.9966 92.9016 38.9966H92.7498V38.8452H95.3983V38.9966H95.2465C94.8753 38.9966 94.4873 39.2994 94.4873 39.7536V46.9197H96.2249C97.507 46.9197 97.9625 46.3141 98.3336 45.3385H98.4855Z" fill="white"/>
<path d="M103.462 38.8456C104.002 38.8456 104.66 38.6942 104.896 38.627V40.1409H104.744V39.9222C104.744 39.5522 104.44 39.2494 104.052 39.2494H101.792V46.4996C101.792 46.8697 102.18 47.2566 102.551 47.2566H102.703V47.3239H100.071V47.2566H100.223C100.679 47.2566 100.982 46.8865 100.982 46.4996V39.2494H98.7216C98.3505 39.2494 98.0468 39.5522 98.0468 39.9222V40.1409H97.895V38.627C98.1143 38.6942 98.8735 38.8456 99.3964 38.8456H103.462Z" fill="white"/>
<path d="M111.678 47.3066V47.2393H111.829C112.285 47.2393 112.589 46.8692 112.589 46.4823V43.303H107.679V46.4823C107.679 46.8524 108.067 47.2393 108.439 47.2393H108.59V47.3066H105.959V47.2393H106.111C106.566 47.2393 106.87 46.8692 106.937 46.4823V39.7536C106.87 39.2994 106.566 38.9966 106.111 38.9966H105.959V38.8452H108.59V38.9966H108.439C108.067 38.9966 107.679 39.2994 107.679 39.7536V42.9329H112.589V39.7536C112.589 39.2994 112.285 38.9966 111.829 38.9966H111.678V38.8452H114.326V38.9966H114.174C113.719 38.9966 113.415 39.2994 113.415 39.7536V46.4823C113.415 46.8524 113.719 47.2393 114.174 47.2393H114.326V47.3066H111.678Z" fill="white"/>
<path d="M127.215 46.4658C127.434 46.9872 127.889 47.2228 128.277 47.2228H128.345V47.29H125.629V47.2228H125.781C126.084 47.2228 126.388 46.92 126.236 46.4658L125.477 44.3462H122.238L121.411 46.4658C121.26 46.92 121.563 47.2228 121.867 47.2228H121.951V47.29H119.522V47.2228H119.674C119.978 47.2228 120.433 47.0041 120.737 46.4658L123.453 39.8884C123.453 39.8884 123.908 38.9128 123.908 38.6772H123.976L127.215 46.4489V46.4658ZM125.325 44.0434L123.891 40.1239L122.306 44.0434H125.325Z" fill="white"/>
<path d="M133.17 38.8452C135.734 38.8452 137.539 40.5779 137.539 43.0675C137.539 45.5571 135.734 47.2898 133.17 47.2898H129.087V47.2225H129.239C129.694 47.2225 129.998 46.8524 129.998 46.4655V39.6695C129.998 39.2994 129.627 38.9966 129.239 38.9966H129.087V38.8452H133.17ZM130.825 46.9197H133.17C135.194 46.9197 136.645 45.4057 136.645 43.0675C136.645 40.7293 135.211 39.2153 133.17 39.2153H130.825V46.9197Z" fill="white"/>
<path d="M146.834 38.8452V38.9966H146.75C146.379 38.9966 145.923 39.2153 145.687 39.7536L142.819 46.2468C142.819 46.2468 142.364 47.2225 142.364 47.458H142.212L138.821 39.7536C138.602 39.2321 138.146 38.9966 137.758 38.9966H137.691V38.8452H140.407V38.9966H140.255C139.951 38.9966 139.648 39.2153 139.799 39.7536L142.364 46.0954L145.012 39.7536C145.164 39.2321 144.86 38.9966 144.557 38.9966H144.405V38.8452H146.834Z" fill="white"/>
<path d="M150.208 47.3066H147.576V47.2393H147.728C148.184 47.2393 148.487 46.8692 148.487 46.4823V39.7536C148.487 39.2994 148.184 38.9966 147.728 38.9966H147.576V38.8452H150.208V38.9966H150.056C149.601 38.9966 149.297 39.2994 149.297 39.7536V46.4823C149.297 46.8524 149.601 47.2393 150.056 47.2393H150.208V47.3066Z" fill="white"/>
<path d="M155.488 43.7572C155.944 44.2114 156.096 44.7329 156.096 45.2712C156.096 46.5497 155.185 47.458 153.835 47.458C153.228 47.458 152.249 47.3066 151.811 46.8525C151.726 46.4824 151.726 45.7254 151.963 45.1198H152.03C151.963 46.3983 152.722 47.1552 153.768 47.1552C154.679 47.088 155.421 46.4824 155.421 45.4899C155.421 45.0357 155.185 44.6656 154.881 44.3628L152.62 42.2433C152.097 41.7891 151.946 41.1835 151.946 40.7293C151.946 39.7536 152.705 38.6938 154.054 38.6938C154.358 38.6938 154.814 38.7611 155.117 38.8452H155.573V40.2751H155.488C155.488 39.5181 154.881 39.0639 154.139 39.0639C153.228 39.0639 152.637 39.6695 152.637 40.4265C152.637 40.7293 152.722 41.1835 153.177 41.5536L155.505 43.7404L155.488 43.7572Z" fill="white"/>
<path d="M166.42 43.0675C166.42 45.7086 164.615 47.4412 162.051 47.4412C159.486 47.4412 157.766 45.7086 157.766 43.0675C157.766 40.4265 159.486 38.6938 162.051 38.6938C164.615 38.6938 166.42 40.4265 166.42 43.0675ZM165.509 43.0675C165.509 40.6452 164.159 39.0639 162.034 39.0639C159.908 39.0639 158.643 40.6452 158.643 43.0675C158.643 45.4899 159.992 47.1384 162.034 47.1384C164.075 47.1384 165.509 45.4731 165.509 43.0675Z" fill="white"/>
<path d="M170.873 38.8452C172.307 38.8452 173.218 39.7536 173.218 41.1162C173.218 42.3273 172.307 43.4544 171.177 43.4544C171.413 43.5217 171.784 43.9759 172.088 44.2787C172.088 44.2787 173.067 45.7926 173.59 46.3141C174.045 46.8356 174.5 47.2225 175.175 47.2225V47.2898H174.484C173.421 47.2898 172.83 46.6842 172.459 46.23C172.307 46.0786 170.958 44.1105 170.806 43.9591C170.502 43.589 170.199 43.1348 169.743 43.1348V43.0675H170.351C171.025 43.0675 171.936 42.9161 172.223 41.789C172.307 41.6376 172.307 41.3349 172.307 41.1162C172.307 39.9891 171.7 39.2994 170.806 39.2321H169.305V46.4823C169.372 46.8524 169.676 47.2393 170.131 47.2393H170.283V47.3066H167.634V47.2393H167.786C168.174 47.2393 168.545 46.8692 168.545 46.4823V39.7536C168.545 39.2994 168.174 38.9966 167.786 38.9966H167.634V38.8452H170.873Z" fill="white"/>
<path d="M179.393 43.7572C179.848 44.2114 180 44.7329 180 45.2712C180 46.5497 179.089 47.458 177.739 47.458C177.132 47.458 176.154 47.3066 175.698 46.8525C175.631 46.4824 175.631 45.7254 175.85 45.1198H175.934C175.783 46.3983 176.609 47.1552 177.655 47.1552C178.566 47.088 179.308 46.4824 179.308 45.4899C179.308 45.0357 179.089 44.6656 178.785 44.3628L176.525 42.2433C175.985 41.7891 175.833 41.1835 175.833 40.7293C175.833 39.7536 176.592 38.6938 177.942 38.6938C178.246 38.6938 178.701 38.7611 179.005 38.8452H179.46V40.2751H179.393C179.393 39.5181 178.785 39.0639 178.043 39.0639C177.132 39.0639 176.542 39.6695 176.542 40.4265C176.542 40.7293 176.609 41.1835 176.997 41.5536L179.41 43.7404L179.393 43.7572Z" fill="white"/>
<path d="M56.0244 28.4998C56.0244 43.9087 43.5745 56.3737 28.2062 56.3737C12.8379 56.3737 0.371124 43.9087 0.371124 28.4998C0.371124 13.091 12.821 0.625977 28.2062 0.625977C43.5914 0.625977 56.0244 13.091 56.0244 28.4998V28.4998Z" stroke="white" stroke-width="0.599213" stroke-miterlimit="10"/>
<path d="M13.2765 34.0174C15.4695 34.0174 16.8191 32.8062 16.8191 30.6867C16.8191 27.5073 13.9513 26.9859 11.8425 26.9859V26.8345C13.1921 26.8345 15.4695 26.4644 15.4695 23.7392C15.4695 21.8552 14.3393 20.7954 12.2306 20.7954H11.1003V34.0174H13.2933H13.2765Z" fill="white"/>
<path d="M53.9157 28.4999C53.9157 42.6976 42.3768 54.2542 28.2062 54.2542C14.0356 54.2542 2.49673 42.6976 2.49673 28.4999C2.49673 14.3022 14.0188 2.74561 28.2062 2.74561C42.3936 2.74561 53.9157 14.3022 53.9157 28.4999ZM7.99626 20.1226V20.3413H8.29992C9.05906 20.3413 9.6495 20.9469 9.6495 21.6197V33.2437C9.6495 33.9165 9.04219 34.5221 8.29992 34.5221H7.99626V34.7408H13.344C16.583 34.7408 18.388 33.1595 18.388 30.8213C18.388 28.7018 16.9541 27.1205 14.6935 26.7504C15.9082 26.4476 17.1059 25.3878 17.1059 23.5711C17.1059 21.5356 15.3683 20.089 12.3487 20.089H7.9794L7.99626 20.1226ZM33.5539 20.274V20.5095H33.7057C34.2287 20.5095 34.6167 20.9637 34.4649 21.7207L31.9681 31.3933L28.2737 19.988H28.0544L24.5792 31.8474L21.7114 21.8048C21.492 20.9805 22.015 20.5263 22.4705 20.5263H22.6223V20.2908H18.4724V20.5263H18.6242C19.1472 20.5263 19.9738 20.8964 20.2774 21.8048L24.4949 35.0268H24.6467C24.7142 34.0511 25.1022 32.7558 25.1022 32.7558L27.8857 23.1674L31.732 35.0268H31.9513C31.9513 34.0511 32.3224 32.7558 32.3224 32.7558L35.4096 21.8048C35.7132 20.8964 36.4724 20.5263 37.0628 20.5263H37.2146V20.2908H33.5202L33.5539 20.274ZM42.4442 19.8198H42.2249C42.2249 20.274 41.4658 22.0066 41.4658 22.0066L36.7085 33.2605C36.3374 34.1689 35.5108 34.5389 34.9035 34.5389H34.7517V34.7576H38.9016V34.5389H38.7498C38.2268 34.5389 37.6195 34.0848 37.9232 33.2605L39.3571 29.6438H44.941L46.2905 33.2605C46.5942 34.0848 46.0712 34.5389 45.4639 34.5389H45.3121V34.7576H49.985V34.5389H49.8332C49.1584 34.5389 48.3993 34.1689 48.0281 33.1764L42.4442 19.803V19.8198Z" fill="white"/>
<path d="M44.7217 29.0215L42.2249 22.3096L39.5933 29.0215H44.7217Z" fill="white"/>
</svg>
